 http://www.shotpix.com/images/29992046945757552628.jpg



 
http://www.imdb.com/title/tt2243537/


Genre : Comedy / Horror

Plot : Malcolm and Kisha move into their dream home, but soon learn a demon also resides there. When Kisha becomes possessed, Malcolm - determined to keep his sex life on track - turns to a priest, a psychic, and a team of ghost-busters for help.


TITLE: A Haunted House 2013 CAM XviD - FLICKER FREE - C00KIEBOY 

ALL CREDIT TO ORIGINAL SOURCE/S: 
AUDIO - TICKLE TIME 
VIDEO - TICKLE TIME 
----------------------------------------------------------------------- 
also BIG up. ADTRG, MATINE, TOMMIE COOK & 
OTHERS 
STATS: 
Format : AVI 
Format/Info : Audio Video Interleave 
File size : 973 MiB 
Duration : 1h 21mn 
Overall bit rate : 1 671 Kbps 
Movie name : A Haunted House 2012 CAM FLICKER FIXED - C00KIEBOY 
Director : C00KIEBOY 
Writing library : VirtualDub build 32842/release 
Copyright : 2013 
Comment : ENCODED BY C00KIEBOY 

Video 
ID : 0 
Format : MPEG-4 Visual 
Format profile : Advanced Simple@L5 
Format settings, BVOP : 3 
Format settings, QPel : Yes 
Format settings, GMC : No warppoints 
Format settings, Matrix : Default (H.263) 
Muxing mode : Packed bitstream 
Codec ID : XVID 
Codec ID/Hint : XviD 
Duration : 1h 21mn 
Bit rate : 1 531 Kbps 
Width : 678 pixels 
Height : 320 pixels 
Display aspect ratio : 2.119 
Frame rate : 29.970 fps 
Color space : YUV 
Chroma subsampling : 4:2:0 
Bit depth : 8 bits 
Scan type : Progressive 
Compression mode : Lossy 
Bits/(Pixel*Frame) : 0.235 
Stream size : 892 MiB (92%) 
Writing library : XviD 64 

Audio 
ID : 1 
Format : MPEG Audio 
Format version : Version 1 
Format profile : Layer 3 
Codec ID : 55 
Codec ID/Hint : MP3 
Duration : 1h 21mn 
Bit rate mode : Constant 
Bit rate : 128 Kbps 
Channel(s) : 2 channels 
Sampling rate : 48.0 KHz 
Compression mode : Lossy 
Stream size : 74.6 MiB (8%) 
Alignment : Split accross interleaves 
Interleave, duration : 33 ms (1.00 video frame) 
Interleave, preload duration : 500 ms 

WORKDONE: 

VIDEO - ADJUSTED COLOR TONES, SATURATED, DENOISED, REMOVED 97% OF SCREEN FLICKER, CROPED BLACK BARDS FROM MOST SCENES. 
AUDIO - LEFT ALONE.

 
http://www.shotpix.com/images/79520053219115399979.png
 
http://www.shotpix.com/images/94898821457432027332.png
 
http://www.shotpix.com/images/72284404933200425232.png
 
http://www.shotpix.com/images/69764929315497750627.png


